REM Ripping Tool: trurip

FILE "Space Invaders - The Original Game (1995)(NEC Avenue)(JP).img" BINARY
  TRACK 01 AUDIO
    INDEX 01 00:00:00
  TRACK 02 MODE1/2352
    INDEX 00 00:44:65
    INDEX 01 00:47:65
  TRACK 03 AUDIO
    INDEX 00 01:34:24
    INDEX 01 01:36:24
  TRACK 04 AUDIO
    INDEX 01 04:31:07
  TRACK 05 AUDIO
    INDEX 01 07:25:02
  TRACK 06 AUDIO
    INDEX 01 10:18:30
  TRACK 07 MODE1/2352
    INDEX 00 10:45:43
    INDEX 01 10:48:43

REM DISC HASHES
REM CRC32 : 235a990b
REM MD5   : b6de3e4a8bb88844d8a52b3e9b69d3a7
REM SHA1  : 5085c6259fb13a3624355077062ada55b2ad05b3

REM Gap Append Method: Prev [crc32]
REM Trk 01: ccd25d2f
REM Trk 02: bad52d0d
REM Trk 03: eb52f4fa
REM Trk 04: 5982e5e6
REM Trk 05: 2aedf908
REM Trk 06: efa98a95
REM Trk 07: 07f64873

REM Gap Append Method: Prev [md5]
REM Trk 01: 7938d9aa88f644b60389fa8246f2052e
REM Trk 02: d038304095a9ba48074960a8f7198bfc
REM Trk 03: 06308e2340dbbe1cf47b3be61bdfed6c
REM Trk 04: 0aad5d324d531db39666d3949ed0d7bf
REM Trk 05: bfd43e2ee43922cf61056f2853a0d72b
REM Trk 06: 4a50a97da8571c61cd63e01d08fd5f5c
REM Trk 07: 80786bb77cd6460e377846f9e8b7b262

REM Gap Append Method: Prev [sha1]
REM Trk 01: 0fc7f8840f23f43ebfb7041f71427c165f368105
REM Trk 02: fa808aa75efcb7d4c9347e4d783fcec6813c8d2d
REM Trk 03: cdee7f9330680cc73a412760927930bc5c5081b2
REM Trk 04: 7963f3e20da2c91384c6c1f41e68a1816a021d24
REM Trk 05: bdf14af2b861c9dc5e3ced7b0cbc8b27e79d9d46
REM Trk 06: 2f5273214d3652ccc1f3f1cdd0c66ce370d25a83
REM Trk 07: 56c55cf84de240aa9bf5fc5c67d80f8b76f110d0

REM Gap Append Method: None [crc32]
REM Trk 01: b979500c
REM Trk 02: 101d6424
REM Trk 03: eb52f4fa
REM Trk 04: 5982e5e6
REM Trk 05: 2aedf908
REM Trk 06: 0d8ef9de
REM Trk 07: 07f64873
REM Gap 02: 16e86594
REM Gap 03: 7abe247f
REM Gap 07: ce8613a7

REM Gap Append Method: None [md5]
REM Trk 01: a25a2c129b7100092cc40e9b6e176a63
REM Trk 02: d9b24385b0190bd584eb22c43f9f9a1f
REM Trk 03: 06308e2340dbbe1cf47b3be61bdfed6c
REM Trk 04: 0aad5d324d531db39666d3949ed0d7bf
REM Trk 05: bfd43e2ee43922cf61056f2853a0d72b
REM Trk 06: d48e3ade3411741d9a8d3e5fdad7d3e7
REM Trk 07: 80786bb77cd6460e377846f9e8b7b262
REM Gap 02: fbd314ec9876f082e173fbb5baf092aa
REM Gap 03: 9df204fbc98bb8965081cb30a89715fc
REM Gap 07: 68de56e364aad52098989d446e79e55d

REM Gap Append Method: None [sha1]
REM Trk 01: 9ac3f1a11d434d186466917f1c7955bf7670c910
REM Trk 02: 48488dbf4b1984d63cdb8070754cec3973b213f8
REM Trk 03: cdee7f9330680cc73a412760927930bc5c5081b2
REM Trk 04: 7963f3e20da2c91384c6c1f41e68a1816a021d24
REM Trk 05: bdf14af2b861c9dc5e3ced7b0cbc8b27e79d9d46
REM Trk 06: 3c25632495e452b8e2e65d2e335c7627736b428e
REM Trk 07: 56c55cf84de240aa9bf5fc5c67d80f8b76f110d0
REM Gap 02: 08a9af7bae10b281a8edaad6e9ea6cd1646d0ce0
REM Gap 03: cbe29e0bd725ef1194f8c47619dd42078e841de2
REM Gap 07: b82c2317ac2461663036eb7599125bd304c06b78

REM Gap Append Method: Next [crc32]
REM Trk 01: b979500c
REM Trk 02: 5d99cdb4
REM Trk 03: bd36a932
REM Trk 04: 5982e5e6
REM Trk 05: 2aedf908
REM Trk 06: 0d8ef9de
REM Trk 07: 60cd8b9f

REM Gap Append Method: Next [md5]
REM Trk 01: a25a2c129b7100092cc40e9b6e176a63
REM Trk 02: 852ea4ff7af6f69f4f9451ef54e7767d
REM Trk 03: f47d2b65f5eb7665428cbfde8ab5c67d
REM Trk 04: 0aad5d324d531db39666d3949ed0d7bf
REM Trk 05: bfd43e2ee43922cf61056f2853a0d72b
REM Trk 06: d48e3ade3411741d9a8d3e5fdad7d3e7
REM Trk 07: 5211f9e11c1d41610003573149b25a1a

REM Gap Append Method: Next [sha1]
REM Trk 01: 9ac3f1a11d434d186466917f1c7955bf7670c910
REM Trk 02: 734464cffc546319deabeadc5062ef3fcff4e230
REM Trk 03: f56b907f7a753ff6d40673d859ef158057b02691
REM Trk 04: 7963f3e20da2c91384c6c1f41e68a1816a021d24
REM Trk 05: bdf14af2b861c9dc5e3ced7b0cbc8b27e79d9d46
REM Trk 06: 3c25632495e452b8e2e65d2e335c7627736b428e
REM Trk 07: 55144fae97569608aad99806452efcd00c9ff0d4

